<?xml version="1.0" encoding="UTF-8"?>
<svg id="Layer_1" xmlns="http://www.w3.org/2000/svg" version="1.1" viewBox="0 0 474.6 507.9">
  <!-- Generator: Adobe Illustrator 29.0.1, SVG Export Plug-In . SVG Version: 2.1.0 Build 192)  -->
  <defs>
    <style>
      .st0 {
        fill: #070607;
      }

      .st1 {
        fill: #e42923;
      }

      .st2 {
        fill: #ca9e67;
      }

      .st3 {
        fill: #fff;
      }

      .st4 {
        fill: #e52421;
      }
    </style>
  </defs>
  <g>
    <path class="st0" d="M380.8,191.1c-17.6,15.1-34.9,30.5-52.6,45.5-1.5,1.2-2.4-.5-4-1-8.3-2.5-16.5,2.4-15.3,11.6.2,1.3,1.9,4.1,1.4,4.9s-1.1.4-1.5.8c-11.7,11.2-25.1,20.9-37.3,31.3-1-5.7-4.1-10.6-6.1-15.9s-3.3-12.2-5.9-17.9-6.4-12.3-14.4-7.3-16.7,25.8-22.1,33.8c-14.1,21.1-36.4,23.1-60,21.8-9.6-.5-35.3-4.7-38.4-15.4-.8-2.8-1.1-9.1-1.2-12.3-.6-13.2-1.7-37,4.6-48.2,10.7-19.2,47.2-19.1,66.6-20.4,11-.7,22.2-1.3,33.1-1.6,32.5-.8,65.1,1.1,97.6.5-2.7-3.1-1.2-4.4,1.3-6.7,4.8-4.4,13.6-7.9,14.7-15.8,2.1-15.2-11.3-33.3-23.9-40.7-44-25.6-127.4-19.7-170.3,6.4-9.8,6-18.6,13.9-23.9,24.3,5.6,6.1,10.3,12.9,15.6,19.1s9.9,7.9,6.1,10.9-8.4,4-11.2,5.8c-14.6,8.9-16.6,14.7-15.9,31.8.4,10.3,1.7,20.8,2.1,31s-.5,3.2-3.4,2.9-3.7-4.1-5.7-6.8-12.1-11.9-14.7-12.7-8.4,3.7-9.3,6.8.3.6.8.8c9.8,2.3,21.9,14.3,26.4,23.3s-1.1,13.3-4.7,22.8c-2.9,7.8-2.3,12.1,6,15.2,2.9,1.1,8.5.7,7.1,5.1s-9.1,3.5-12.5,1.9c-10.2-4.9-9.9-14.4-6.3-23.7.9-2.3,6-10.5,5.9-11.6s-9-15.2-9.8-15.6-.8-.1-1.3.3c-2.4,1.6-8.9,10.7-9.5,13.4s3.4,13.2,2.8,14.6c-1.1,2.6-3.5-.8-4.2-2-6.5-11.9-.6-23.5,7.5-32.3-5.8-5.4-10.8-7.8-14.3,1.1s-3.5,14.9-1.3,23.3c4.7,17.9,13.6,35.7,19.9,53.1,2.1,2.9,8.1,4.2,11.5,3.9s7.6-3.2,8.5,0-5,8.1-8.7,7.9l1.6,20.4.2,25.6c1.3,2.9,32.5,16.2,38,19.4,11.9,6.8,10.5,11.4,17.7,20.6,10.6,13.7,39.5,13.2,55.5,13.8s54.9.6,75.8-4.9,18.1-33.3,26.6-48.9,9.9-10.3,12.1-14.3,1.1-3.4,2.1-5.2c1.8-3.3,5-5.4,6.7-8.8,6.8-13.6,2.7-49,3.2-65.7,0-1.1.5-2.1.5-3.1.2-4.7,0-9.5.5-14.2-2.8.5-5.3,1.9-8.1,2.5-13.2,3.3-37.6,3.6-50.5-.6-1.3-.4-7.2-3.4-7.7-3,5,13.9-1.6,24.2-15.1,28.1-10.9,3.1-20.6,0-31.5-1.2,0,0,0-.6.4-1,2.7-2.3,7.6-7.2,10.2-8.8s1-.4,1.8-.5c3.5-.4,7.7,1.3,11.6,1,3.6-.2,11.8-2.1,13.3-5.8s-1.8-10.9-2.7-14.9c13.5-11.5,26.8-23.6,40.5-34.6,7.4,5.8,18.7.7,17.9-9.1-.1-1.7-1.9-4.6-1-5.8l46.6-39.8c1.1-.9,2.9-1.7,3.6-2.3-.3.9-.5,1.8-.5,2.8-1.2,26.3,2.8,62.7-10.6,85.6-4.3,7.4-5.1,5.6-4.9,15.3.5,19.2,2,38.7,1.1,58s-1.9,18.3-7.6,27.6c-4.4,7.2-15.5,18.8-18.2,25.3-2.9,6.9-3.6,19.1-6.1,27-9.8,30.9-32.8,30.6-60.6,33.6-9.6,1-15.1.4-24.3,0-19.8-.8-66.5,1.3-82-9.6-11.4-8.1-13.3-21.8-26.8-28.6-11.1-5.6-33.6-11.8-39.9-22.2-4.1-6.7-3.7-19.3-3.8-27.3,0-7.4.4-14.8.5-22.2-14.8-8.5-21.3-25-26.8-40.4-6.3-17.5-12.6-37.7-6.4-56.1,3.4-10.3,11.3-18.9,15.8-28.8-1.1-25-1.4-50-2.6-75-2.2-46.6-14.4-84,36.4-107.5,44.2-20.5,117.8-25,165.6-18.5,25.7,3.5,74.5,13.9,93.7,31.5,12.6,11.5,8.8,36.3,8.5,52-.4,23.5-.7,47.1-.5,70.7ZM109.6,72.6c-.9.4-2.3.5-3.1,1.3.8.7,2.2,0,3.1-.3,32.2-6.2,65.9-.4,98,4.2s62.9,11.3,94.8,12.9c15.7.8,50.2,2.3,63.3-6.1s.9-4.3-1.1-6.3c-10.5-10.6-37-17.3-51.4-20-58.1-11-148.9-9.7-203.5,14.3Z"/>
    <path class="st1" d="M380.8,197.9c-.7.6-2.6,1.4-3.6,2.3l-46.6,39.8c-.8,1.2.9,4,1,5.8.8,9.7-10.5,14.8-17.9,9.1-13.7,11.1-27.1,23.1-40.5,34.6-6.9,5.9-14.2,11.5-21,17.6s-1.3,1-1.3,2.1c-.8,0-1,0-1.8.5-2.6,1.7-7.5,6.5-10.2,8.8s-.3,1-.4,1c-.8.7-2.8,1.7-3.9,2.6-13.1,11.1-25.9,22.5-39.1,33.4-.3,1.7.3,3.1-.2,5-1.9,8.1-15.4,6.4-13.6-2.2s6.9-5.5,10.7-5.3c13.4-11.4,26.5-23,39.9-34.4,4-3.4,8-7,11.9-10.4,9.2-7.9,18.3-16,27.4-23.8s25.6-20.2,37.3-31.3,1.4-.7,1.5-.8c.4-.7-1.3-3.6-1.4-4.9-1.3-9.3,6.9-14.1,15.3-11.6s2.5,2.2,4,1c17.7-15,35-30.4,52.6-45.5s41.3-35.2,61.9-52.8c1.9-2.3-.9-5.8,3.3-8.6,10-6.6,15.2,11.8,3.8,12.1s-2.5-1.2-6.1,1.6c-21.4,16.4-42.3,36.8-62.9,54.3Z"/>
    <path class="st1" d="M471.9,118.2c.6.6-.5,1.6-1,1s.5-1.6,1-1Z"/>
    <path class="st2" d="M238.5,319.5c10.9,1.3,20.6,4.3,31.5,1.2,13.6-3.9,20.1-14.2,15.1-28.1.5-.4,6.4,2.5,7.7,3,12.9,4.2,37.3,3.9,50.5.6,2.7-.7,5.3-2,8.1-2.5-.6,4.7-.3,9.5-.5,14.2s-.5,2-.5,3.1c-.5,16.6,3.6,52-3.2,65.7-1.7,3.4-4.9,5.5-6.7,8.8s-1.3,3.7-2.1,5.2c-2.2,4-9.1,8.8-12.1,14.3-8.5,15.6-4.3,43-26.6,48.9s-54.1,5.8-75.8,4.9-45,0-55.5-13.8c-7.1-9.3-5.8-13.8-17.7-20.6-5.5-3.2-36.7-16.5-38-19.4l-.2-25.6-1.6-20.4c3.7.2,10-3.7,8.7-7.9s-6.3-.1-8.5,0c-3.4.3-9.5-.9-11.5-3.9-6.3-17.4-15.2-35.2-19.9-53.1s-2-15.2,1.3-23.3,8.6-6.5,14.3-1.1c-8.1,8.9-14,20.4-7.5,32.3s3.1,4.6,4.2,2-3.4-11.2-2.8-14.6,7.1-11.7,9.5-13.4.6-.7,1.3-.3,9.8,14.6,9.8,15.6-5,9.3-5.9,11.6c-3.6,9.3-3.9,18.9,6.3,23.7s11.1,2.8,12.5-1.9-4.3-4-7.1-5.1c-8.3-3.1-8.9-7.5-6-15.2,3.6-9.5,10.3-11.4,4.7-22.8s-16.6-21-26.4-23.3-1.1.3-.8-.8c.9-3,5.8-7.8,9.3-6.8s12.9,10.2,14.7,12.7,1.6,6.4,5.7,6.8,3.5,0,3.4-2.9c-.4-10.2-1.7-20.7-2.1-31-.7-17,1.3-22.8,15.9-31.8s9.1-4.1,11.2-5.8c3.8-3-4.3-8.7-6.1-10.9-5.3-6.2-10-13.1-15.6-19.1,5.3-10.3,14.1-18.3,23.9-24.3,42.9-26.1,126.3-32,170.3-6.4,12.6,7.3,26,25.4,23.9,40.7-1.1,7.9-9.8,11.4-14.7,15.8s-4,3.6-1.3,6.7c-32.5.6-65.1-1.3-97.6-.5-10.9.3-22.1.9-33.1,1.6-19.4,1.2-55.9,1.2-66.6,20.4-6.3,11.3-5.2,35.1-4.6,48.2s.4,9.5,1.2,12.3c3.2,10.8,28.8,14.9,38.4,15.4,23.6,1.3,45.9-.7,60-21.8,5.4-8,15.1-29.4,22.1-33.8s11.4.6,14.4,7.3,3.7,12,5.9,17.9,5.1,10.2,6.1,15.9c-9.1,7.8-18.2,15.9-27.4,23.8-6-1.2-11.8-1.7-17.2-4.8s-6.2-6-7.9-2.5c-3.5,7.6,6.4,16.1,13.2,17.6-13.3,11.4-26.5,23.1-39.9,34.4-3.8-.2-9.8.8-10.7,5.3-1.8,8.7,11.8,10.3,13.6,2.2s-.1-3.2.2-5c13.3-10.8,26.1-22.3,39.1-33.4s3-1.9,3.9-2.6ZM182.1,316.4c-3.5-.5-7,3.1-9,5.7-7.7,10.2-6.9,39.4-5.5,52s2.6,15.9,9.7,18.8,7.1,2,6.8-1.1-4.7-6.4-5.7-8.8c-2-4.5-2.8-14.1-3-19.2-.4-8.1-1.1-20.2-.5-28,.3-4.2,1.5-7.9,3.4-11.6s4.7-7,3.9-7.8ZM311.5,323.1c1.2,8.6,8,14.5,8.8,23.6,1.1,12.5-.8,26.6,0,39.3-.2,3.1-7.1,8.7-4.6,11.4,2.1,2.3,5.9-.8,7.3-2.6,4.5-6,4.9-15.9,5.2-23.3.5-13.7-.9-32-9.9-43-.6-.8-5.9-6.3-6.7-5.4ZM240.4,331c-9.2,1.1-17.8,7.1-24,13.8-2.9,3.1-6.2,8.8-9.5,11.2s-8.3,2.2-3.5,7.1l20.3,1.9c8.3-2.9,12.1-12.1,21.8-12.9,5.6-.5,16.8-.5,22.3,0s10.2,6.7,14,9.2,8,4.7,12,6.6c4.2-.4,11,.4,14.8-.3s3.6-3,2.1-5.2-6.2-4.5-8.3-6.2c-8-6.5-13.5-18.8-22.3-22.7s-32-3.4-39.6-2.5ZM279.7,379.3c3.4-5.5.7-9.1-4.6-11.8-11.9-6.1-34-5.1-44.1,4.2-3.2,3-1.6,8.1,1.8,10s14.2,2.1,18.8,2.4c6.2.3,16.3,1.4,22.2.5s1.5-.6,2.4-1.3,2.8-3.1,3.4-4.1Z"/>
    <path class="st3" d="M109.6,73.6v-1c54.6-24,145.4-25.3,203.5-14.3,14.5,2.7,41,9.4,51.4,20,2,2,4,4.4,1.1,6.3-13.1,8.5-47.5,6.9-63.3,6.1-31.9-1.6-63.3-8.3-94.8-12.9s-65.8-10.4-98-4.2Z"/>
    <path class="st2" d="M250.9,309.1c0-1,.6-1.5,1.3-2.1,6.8-6.1,14-11.7,21-17.6.9,4,4.3,10.9,2.7,14.9s-9.7,5.6-13.3,5.8c-4,.2-8.1-1.4-11.6-1Z"/>
    <path class="st1" d="M109.6,72.6v1c-.9.2-2.3.9-3.1.3.8-.8,2.2-.9,3.1-1.3Z"/>
    <path class="st0" d="M244.2,308.1c-3.9,3.4-7.9,6.9-11.9,10.4-6.8-1.5-16.7-10-13.2-17.6s5.4,1.1,7.9,2.5c5.4,3,11.3,3.5,17.2,4.8Z"/>
    <path class="st0" d="M240.4,331c7.6-.9,33.1-.4,39.6,2.5s14.3,16.2,22.3,22.7,6.7,3.7,8.3,6.2.3,4.7-2.1,5.2c-3.8.7-10.6,0-14.8.3-4-1.9-8.3-4.1-12-6.6s-9.8-8.8-14-9.2-16.7-.5-22.3,0c-9.7.8-13.5,10-21.8,12.9l-20.3-1.9c-4.8-4.9.8-5.2,3.5-7.1s6.7-8,9.5-11.2c6.1-6.7,14.8-12.7,24-13.8Z"/>
    <path class="st0" d="M279.7,379.3c-.6,1-2.5,3.4-3.4,4.1s-1.2,1.1-2.4,1.3c-6,.9-16-.1-22.2-.5-4.6-.3-14.9-.2-18.8-2.4s-5.1-7.1-1.8-10c10.1-9.3,32.2-10.3,44.1-4.2,5.3,2.7,8,6.3,4.6,11.8Z"/>
    <path class="st0" d="M182.1,316.4c.8.8-3.3,6.6-3.9,7.8-1.9,3.8-3.1,7.4-3.4,11.6-.6,7.8.1,19.9.5,28s1.1,14.7,3,19.2,5.6,7.1,5.7,8.8c.3,3.1-5.2,1.7-6.8,1.1-7.1-2.8-8.9-11.9-9.7-18.8-1.4-12.6-2.2-41.8,5.5-52s5.5-6.2,9-5.7Z"/>
    <path class="st0" d="M311.5,323.1c.8-.9,6.1,4.7,6.7,5.4,9,11,10.4,29.2,9.9,43-.3,7.4-.7,17.3-5.2,23.3-1.4,1.8-5.2,4.9-7.3,2.6-2.5-2.7,4.5-8.3,4.6-11.4-.8-12.7,1.2-26.8,0-39.3-.8-9.1-7.6-15-8.8-23.6Z"/>
  </g>
  <circle class="st4" cx="320.7" cy="246.2" r="12.8"/>
  <circle class="st4" cx="451.3" cy="135" r="10.9"/>
  <circle class="st4" cx="189.2" cy="357.3" r="10.9"/>
</svg>